<mxfile host="app.diagrams.net" modified="2024-07-20T05:24:02.489Z" agent="Mozilla/5.0 (Windows NT 10.0; Win64; x64) AppleWebKit/537.36 (KHTML, like Gecko) Chrome/126.0.0.0 Safari/537.36" etag="zAfj803gP6G5wcC1WG_b" version="24.7.1" type="github">
  <diagram name="Page-1" id="hzhFGRTTYgDkyXCAooqA">
    <mxGraphModel dx="1134" dy="729" grid="1" gridSize="10" guides="1" tooltips="1" connect="1" arrows="1" fold="1" page="1" pageScale="1" pageWidth="827" pageHeight="1169" math="0" shadow="0">
      <root>
        <mxCell id="0" />
        <mxCell id="1" parent="0" />
        <mxCell id="y-fIZaDv1GcIduzcxcMh-4" value="" style="edgeStyle=orthogonalEdgeStyle;rounded=0;orthogonalLoop=1;jettySize=auto;html=1;" edge="1" parent="1" source="y-fIZaDv1GcIduzcxcMh-1" target="y-fIZaDv1GcIduzcxcMh-3">
          <mxGeometry relative="1" as="geometry" />
        </mxCell>
        <mxCell id="y-fIZaDv1GcIduzcxcMh-6" value="" style="edgeStyle=orthogonalEdgeStyle;rounded=0;orthogonalLoop=1;jettySize=auto;html=1;" edge="1" parent="1" source="y-fIZaDv1GcIduzcxcMh-1" target="y-fIZaDv1GcIduzcxcMh-5">
          <mxGeometry relative="1" as="geometry" />
        </mxCell>
        <mxCell id="y-fIZaDv1GcIduzcxcMh-8" value="" style="edgeStyle=orthogonalEdgeStyle;rounded=0;orthogonalLoop=1;jettySize=auto;html=1;" edge="1" parent="1" source="y-fIZaDv1GcIduzcxcMh-1" target="y-fIZaDv1GcIduzcxcMh-7">
          <mxGeometry relative="1" as="geometry" />
        </mxCell>
        <mxCell id="y-fIZaDv1GcIduzcxcMh-1" value="Computers/Programming" style="rounded=0;whiteSpace=wrap;html=1;" vertex="1" parent="1">
          <mxGeometry x="334" y="10" width="160" height="50" as="geometry" />
        </mxCell>
        <mxCell id="y-fIZaDv1GcIduzcxcMh-10" value="" style="edgeStyle=orthogonalEdgeStyle;rounded=0;orthogonalLoop=1;jettySize=auto;html=1;" edge="1" parent="1" source="y-fIZaDv1GcIduzcxcMh-3" target="y-fIZaDv1GcIduzcxcMh-9">
          <mxGeometry relative="1" as="geometry" />
        </mxCell>
        <mxCell id="y-fIZaDv1GcIduzcxcMh-13" style="edgeStyle=orthogonalEdgeStyle;rounded=0;orthogonalLoop=1;jettySize=auto;html=1;" edge="1" parent="1" source="y-fIZaDv1GcIduzcxcMh-3" target="y-fIZaDv1GcIduzcxcMh-12">
          <mxGeometry relative="1" as="geometry" />
        </mxCell>
        <mxCell id="y-fIZaDv1GcIduzcxcMh-37" style="edgeStyle=orthogonalEdgeStyle;rounded=0;orthogonalLoop=1;jettySize=auto;html=1;entryX=0.5;entryY=0;entryDx=0;entryDy=0;" edge="1" parent="1" source="y-fIZaDv1GcIduzcxcMh-3" target="y-fIZaDv1GcIduzcxcMh-15">
          <mxGeometry relative="1" as="geometry" />
        </mxCell>
        <mxCell id="y-fIZaDv1GcIduzcxcMh-3" value="Computers" style="rounded=0;whiteSpace=wrap;html=1;" vertex="1" parent="1">
          <mxGeometry x="60" y="140" width="160" height="50" as="geometry" />
        </mxCell>
        <mxCell id="y-fIZaDv1GcIduzcxcMh-19" value="" style="edgeStyle=orthogonalEdgeStyle;rounded=0;orthogonalLoop=1;jettySize=auto;html=1;" edge="1" parent="1" source="y-fIZaDv1GcIduzcxcMh-5" target="y-fIZaDv1GcIduzcxcMh-18">
          <mxGeometry relative="1" as="geometry" />
        </mxCell>
        <mxCell id="y-fIZaDv1GcIduzcxcMh-20" value="" style="edgeStyle=orthogonalEdgeStyle;rounded=0;orthogonalLoop=1;jettySize=auto;html=1;" edge="1" parent="1" source="y-fIZaDv1GcIduzcxcMh-5" target="y-fIZaDv1GcIduzcxcMh-18">
          <mxGeometry relative="1" as="geometry" />
        </mxCell>
        <mxCell id="y-fIZaDv1GcIduzcxcMh-23" style="edgeStyle=orthogonalEdgeStyle;rounded=0;orthogonalLoop=1;jettySize=auto;html=1;entryX=0.5;entryY=0;entryDx=0;entryDy=0;" edge="1" parent="1" source="y-fIZaDv1GcIduzcxcMh-5" target="y-fIZaDv1GcIduzcxcMh-24">
          <mxGeometry relative="1" as="geometry">
            <mxPoint x="524" y="250" as="targetPoint" />
          </mxGeometry>
        </mxCell>
        <mxCell id="y-fIZaDv1GcIduzcxcMh-41" style="edgeStyle=orthogonalEdgeStyle;rounded=0;orthogonalLoop=1;jettySize=auto;html=1;entryX=0.5;entryY=0;entryDx=0;entryDy=0;" edge="1" parent="1" source="y-fIZaDv1GcIduzcxcMh-5" target="y-fIZaDv1GcIduzcxcMh-34">
          <mxGeometry relative="1" as="geometry">
            <Array as="points">
              <mxPoint x="414" y="310" />
              <mxPoint x="495" y="310" />
            </Array>
          </mxGeometry>
        </mxCell>
        <mxCell id="y-fIZaDv1GcIduzcxcMh-5" value="AI" style="rounded=0;whiteSpace=wrap;html=1;" vertex="1" parent="1">
          <mxGeometry x="334" y="140" width="160" height="50" as="geometry" />
        </mxCell>
        <mxCell id="y-fIZaDv1GcIduzcxcMh-30" style="edgeStyle=orthogonalEdgeStyle;rounded=0;orthogonalLoop=1;jettySize=auto;html=1;entryX=0.5;entryY=0;entryDx=0;entryDy=0;" edge="1" parent="1" source="y-fIZaDv1GcIduzcxcMh-7" target="y-fIZaDv1GcIduzcxcMh-27">
          <mxGeometry relative="1" as="geometry" />
        </mxCell>
        <mxCell id="y-fIZaDv1GcIduzcxcMh-31" style="edgeStyle=orthogonalEdgeStyle;rounded=0;orthogonalLoop=1;jettySize=auto;html=1;entryX=0.5;entryY=0;entryDx=0;entryDy=0;" edge="1" parent="1" source="y-fIZaDv1GcIduzcxcMh-7" target="y-fIZaDv1GcIduzcxcMh-26">
          <mxGeometry relative="1" as="geometry" />
        </mxCell>
        <mxCell id="y-fIZaDv1GcIduzcxcMh-40" style="edgeStyle=orthogonalEdgeStyle;rounded=0;orthogonalLoop=1;jettySize=auto;html=1;entryX=0.5;entryY=0;entryDx=0;entryDy=0;" edge="1" parent="1" source="y-fIZaDv1GcIduzcxcMh-7" target="y-fIZaDv1GcIduzcxcMh-34">
          <mxGeometry relative="1" as="geometry">
            <Array as="points">
              <mxPoint x="690" y="220" />
              <mxPoint x="560" y="220" />
              <mxPoint x="560" y="310" />
              <mxPoint x="495" y="310" />
            </Array>
          </mxGeometry>
        </mxCell>
        <mxCell id="y-fIZaDv1GcIduzcxcMh-7" value="Game dev" style="rounded=0;whiteSpace=wrap;html=1;" vertex="1" parent="1">
          <mxGeometry x="610" y="140" width="160" height="50" as="geometry" />
        </mxCell>
        <mxCell id="y-fIZaDv1GcIduzcxcMh-9" value="How does RAM/CPU/GPU/MOBO work in a PC" style="rounded=0;whiteSpace=wrap;html=1;fontSize=11;" vertex="1" parent="1">
          <mxGeometry x="150" y="250" width="120" height="50" as="geometry" />
        </mxCell>
        <mxCell id="y-fIZaDv1GcIduzcxcMh-12" value="Whats the difference between a PC and laptop" style="rounded=0;whiteSpace=wrap;html=1;" vertex="1" parent="1">
          <mxGeometry x="10" y="250" width="120" height="50" as="geometry" />
        </mxCell>
        <mxCell id="y-fIZaDv1GcIduzcxcMh-15" value="Something about operating systems" style="rounded=0;whiteSpace=wrap;html=1;" vertex="1" parent="1">
          <mxGeometry x="80" y="310" width="120" height="50" as="geometry" />
        </mxCell>
        <mxCell id="y-fIZaDv1GcIduzcxcMh-43" value="" style="edgeStyle=orthogonalEdgeStyle;rounded=0;orthogonalLoop=1;jettySize=auto;html=1;" edge="1" parent="1" source="y-fIZaDv1GcIduzcxcMh-18" target="y-fIZaDv1GcIduzcxcMh-42">
          <mxGeometry relative="1" as="geometry" />
        </mxCell>
        <mxCell id="y-fIZaDv1GcIduzcxcMh-18" value="Difference between MLAs and AI" style="rounded=0;whiteSpace=wrap;html=1;" vertex="1" parent="1">
          <mxGeometry x="290" y="250" width="120" height="50" as="geometry" />
        </mxCell>
        <mxCell id="y-fIZaDv1GcIduzcxcMh-24" value="Should we be scared of AI" style="rounded=0;whiteSpace=wrap;html=1;" vertex="1" parent="1">
          <mxGeometry x="430" y="250" width="120" height="50" as="geometry" />
        </mxCell>
        <mxCell id="y-fIZaDv1GcIduzcxcMh-26" value="How do I make sure a game sells well" style="rounded=0;whiteSpace=wrap;html=1;" vertex="1" parent="1">
          <mxGeometry x="700" y="250" width="120" height="50" as="geometry" />
        </mxCell>
        <mxCell id="y-fIZaDv1GcIduzcxcMh-32" style="edgeStyle=orthogonalEdgeStyle;rounded=0;orthogonalLoop=1;jettySize=auto;html=1;entryX=0.5;entryY=0;entryDx=0;entryDy=0;" edge="1" parent="1" source="y-fIZaDv1GcIduzcxcMh-27" target="y-fIZaDv1GcIduzcxcMh-28">
          <mxGeometry relative="1" as="geometry" />
        </mxCell>
        <mxCell id="y-fIZaDv1GcIduzcxcMh-27" value="How do I design a good game" style="rounded=0;whiteSpace=wrap;html=1;" vertex="1" parent="1">
          <mxGeometry x="570" y="250" width="120" height="50" as="geometry" />
        </mxCell>
        <mxCell id="y-fIZaDv1GcIduzcxcMh-28" value="What defines a good game" style="rounded=0;whiteSpace=wrap;html=1;" vertex="1" parent="1">
          <mxGeometry x="570" y="330" width="120" height="50" as="geometry" />
        </mxCell>
        <mxCell id="y-fIZaDv1GcIduzcxcMh-46" style="edgeStyle=orthogonalEdgeStyle;rounded=0;orthogonalLoop=1;jettySize=auto;html=1;entryX=0.5;entryY=0;entryDx=0;entryDy=0;" edge="1" parent="1" source="y-fIZaDv1GcIduzcxcMh-34" target="y-fIZaDv1GcIduzcxcMh-44">
          <mxGeometry relative="1" as="geometry">
            <Array as="points">
              <mxPoint x="495" y="400" />
              <mxPoint x="350" y="400" />
            </Array>
          </mxGeometry>
        </mxCell>
        <mxCell id="y-fIZaDv1GcIduzcxcMh-34" value="Can AI play a game" style="rounded=0;whiteSpace=wrap;html=1;" vertex="1" parent="1">
          <mxGeometry x="430" y="330" width="130" height="50" as="geometry" />
        </mxCell>
        <mxCell id="y-fIZaDv1GcIduzcxcMh-45" value="" style="edgeStyle=orthogonalEdgeStyle;rounded=0;orthogonalLoop=1;jettySize=auto;html=1;" edge="1" parent="1" source="y-fIZaDv1GcIduzcxcMh-42" target="y-fIZaDv1GcIduzcxcMh-44">
          <mxGeometry relative="1" as="geometry" />
        </mxCell>
        <mxCell id="y-fIZaDv1GcIduzcxcMh-42" value="How does an MLA learn compared to AI" style="rounded=0;whiteSpace=wrap;html=1;" vertex="1" parent="1">
          <mxGeometry x="290" y="330" width="120" height="50" as="geometry" />
        </mxCell>
        <mxCell id="y-fIZaDv1GcIduzcxcMh-48" value="" style="edgeStyle=orthogonalEdgeStyle;rounded=0;orthogonalLoop=1;jettySize=auto;html=1;" edge="1" parent="1" source="y-fIZaDv1GcIduzcxcMh-44" target="y-fIZaDv1GcIduzcxcMh-47">
          <mxGeometry relative="1" as="geometry" />
        </mxCell>
        <mxCell id="y-fIZaDv1GcIduzcxcMh-44" value="Can an MLA to play a game" style="rounded=0;whiteSpace=wrap;html=1;" vertex="1" parent="1">
          <mxGeometry x="290" y="420" width="120" height="50" as="geometry" />
        </mxCell>
        <mxCell id="y-fIZaDv1GcIduzcxcMh-50" value="" style="edgeStyle=orthogonalEdgeStyle;rounded=0;orthogonalLoop=1;jettySize=auto;html=1;" edge="1" parent="1" source="y-fIZaDv1GcIduzcxcMh-47" target="y-fIZaDv1GcIduzcxcMh-49">
          <mxGeometry relative="1" as="geometry" />
        </mxCell>
        <mxCell id="y-fIZaDv1GcIduzcxcMh-47" value="Can an MLA learn to balance a pendulum" style="rounded=0;whiteSpace=wrap;html=1;" vertex="1" parent="1">
          <mxGeometry x="290" y="510" width="120" height="50" as="geometry" />
        </mxCell>
        <mxCell id="y-fIZaDv1GcIduzcxcMh-49" value="How effectively can an MLA learn to balance a 2d pendulum on a moving cart" style="rounded=0;whiteSpace=wrap;html=1;fontSize=11;" vertex="1" parent="1">
          <mxGeometry x="275" y="590" width="150" height="50" as="geometry" />
        </mxCell>
      </root>
    </mxGraphModel>
  </diagram>
</mxfile>
